<?xml version="1.0" standalone="no"?>
<!DOCTYPE svg PUBLIC "-//W3C//DTD SVG 20010904//EN"
 "http://www.w3.org/TR/2001/REC-SVG-20010904/DTD/svg10.dtd">
<svg version="1.0" xmlns="http://www.w3.org/2000/svg"
 width="300.000000pt" height="1200.000000pt" viewBox="0 0 300.000000 1200.000000"
 preserveAspectRatio="xMidYMid meet">
<metadata>
Created by potrace 1.15, written by Peter Selinger 2001-2017
</metadata>
<g transform="translate(0.000000,1200.000000) scale(0.100000,-0.100000)"
fill="#000000" stroke="none">
<path d="M1397 11976 c-16 -12 -29 -29 -31 -37 -1 -8 -8 -25 -16 -39 -8 -14
-13 -33 -12 -42 2 -9 -4 -31 -13 -48 -10 -19 -14 -42 -10 -58 5 -24 10 -27 45
-27 36 0 43 4 65 40 26 42 35 28 10 -15 -19 -33 -18 -50 0 -26 14 19 15 19 15
-7 0 -15 7 -30 15 -33 21 -8 8 -24 -18 -23 -12 0 -16 3 -9 6 6 2 12 9 12 14 0
18 -41 -12 -61 -44 -19 -30 -20 -31 -17 -7 4 35 -21 66 -54 65 -23 0 -30 -7
-43 -43 -9 -23 -18 -52 -19 -65 -5 -36 -44 -168 -71 -238 -55 -139 -90 -458
-77 -707 5 -99 8 -125 13 -92 6 43 6 43 7 -17 1 -35 -1 -63 -5 -63 -5 0 -8
-318 -8 -707 l0 -708 -33 -187 c-30 -172 -101 -452 -124 -488 -8 -13 -9 -13
-5 1 55 178 116 540 137 804 12 151 12 503 -1 690 -28 424 -29 810 -3 1045 9
80 33 233 55 340 31 158 45 208 73 263 20 37 32 67 27 67 -11 0 -56 -84 -75
-140 -8 -25 -24 -83 -35 -130 -11 -47 -31 -130 -45 -185 -28 -111 -56 -306
-56 -391 0 -68 -19 -64 -22 4 0 26 -5 -11 -9 -83 -6 -98 -16 -162 -42 -260
-29 -109 -32 -131 -21 -143 8 -7 14 -18 14 -25 0 -6 -6 -2 -14 9 -8 10 -16 17
-18 14 -3 -3 -26 -68 -53 -145 -26 -77 -83 -234 -127 -350 -186 -491 -306
-812 -317 -848 -8 -22 -17 -34 -23 -31 -7 4 -8 2 -4 -4 6 -11 -22 -127 -29
-120 -3 3 -96 355 -235 893 -43 167 -101 385 -115 435 -11 37 -13 -206 -14
-1400 l-1 -1445 49 145 c36 108 51 173 60 255 17 159 50 367 62 390 7 16 8 13
4 -15 -11 -82 -15 -315 -5 -295 5 11 48 115 94 230 93 232 207 497 213 492 2
-2 -5 -26 -16 -53 -26 -70 -61 -186 -61 -205 0 -31 -59 -243 -89 -320 -17 -42
-35 -107 -41 -145 -6 -38 -17 -100 -25 -139 -25 -130 -26 -166 -1 -75 42 152
59 205 63 194 2 -7 -5 -49 -17 -94 -34 -134 -68 -310 -84 -437 -53 -415 -44
-652 36 -1032 36 -172 64 -261 115 -369 46 -96 37 -99 -12 -4 -24 46 -34 59
-33 42 3 -49 -2 -71 -13 -64 -7 4 -8 21 -5 43 10 58 10 60 -38 196 -91 264
-122 496 -113 870 7 313 60 736 113 909 12 38 -17 4 -47 -57 -67 -132 -135
-360 -169 -567 -7 -41 -19 -85 -26 -97 -12 -19 -14 -368 -12 -2155 1 -1173 5
-2059 8 -1968 l5 165 14 -78 c8 -43 18 -80 23 -83 5 -3 6 5 3 18 -25 113 -45
217 -45 239 0 15 28 96 61 181 48 119 66 177 79 263 13 81 27 130 53 185 l36
75 0 -42 c1 -32 -3 -43 -14 -43 -8 0 -15 -5 -15 -11 0 -6 6 -9 13 -6 7 3 13
-3 13 -12 0 -9 3 -63 6 -121 3 -58 3 -86 1 -62 -2 23 -8 42 -12 42 -10 0 -3
-87 9 -115 10 -24 21 -199 11 -190 -3 4 -14 41 -23 83 l-17 77 5 -85 c9 -129
11 -145 29 -288 l16 -133 -61 -65 c-33 -36 -73 -84 -87 -107 l-27 -42 -10 45
c-9 42 -24 65 -35 54 -3 -3 1 -9 9 -14 23 -14 19 -194 -5 -240 -12 -23 -14
-35 -6 -38 6 -2 8 -9 4 -15 -4 -6 -6 -54 -6 -107 1 -83 0 -88 -7 -42 -4 29
-11 116 -14 194 -4 78 -10 145 -13 148 -3 3 -2 -80 2 -185 11 -284 12 -306 19
-312 3 -4 6 -20 6 -36 0 -25 -2 -28 -15 -17 -13 11 -15 6 -15 -33 0 -30 5 -47
14 -50 10 -4 13 -1 9 9 -3 7 0 14 6 14 16 0 14 -80 -1 -80 -9 -1 -8 -5 3 -13
10 -8 18 -36 22 -82 l6 -70 -15 55 c-22 81 -24 82 -18 5 8 -93 12 -122 23
-175 6 -25 10 -81 11 -124 0 -44 2 -77 4 -75 5 6 14 235 21 519 6 251 19 466
36 620 9 82 14 98 37 120 14 14 20 18 14 9 -25 -33 -59 -411 -66 -719 -4 -173
-3 -189 5 -106 5 55 12 102 14 105 23 23 28 -45 36 -476 9 -560 24 -1060 34
-1176 2 -20 -1 -34 -6 -31 -5 3 -9 0 -9 -5 0 -6 5 -11 10 -11 6 0 10 -16 10
-35 0 -25 -4 -35 -15 -35 -22 0 -35 42 -25 83 4 21 4 37 -2 39 -5 2 -11 18
-13 37 -2 18 -7 40 -9 50 -3 9 -8 54 -11 100 -3 46 -8 87 -10 91 -2 3 -7 82
-11 175 -4 94 -8 190 -9 215 -2 25 -5 137 -6 250 l-3 205 -6 -185 c-3 -102 -7
-153 -8 -114 -1 38 -6 74 -11 80 -6 5 -21 43 -34 84 l-24 75 -2 -140 c0 -77 4
-165 10 -195 6 -30 19 -95 29 -145 21 -102 32 -204 19 -183 -5 7 -9 27 -9 43
0 17 -11 66 -25 110 l-24 80 0 -556 -1 -556 183 -1 c100 -1 232 1 293 4 l111
6 -13 76 c-8 43 -20 117 -29 167 -8 50 -17 101 -20 115 -11 48 -34 202 -35
228 0 7 -5 10 -11 6 -8 -5 -8 -1 0 14 9 17 8 23 -6 31 -14 8 -15 10 -3 11 12
0 13 2 1 9 -8 5 -14 26 -14 50 0 23 -3 41 -6 41 -4 0 -7 15 -7 33 0 17 -6 57
-13 87 -7 30 -14 75 -17 100 -2 25 -9 72 -14 105 -6 33 -12 76 -15 95 -3 19
-10 60 -15 90 -6 30 -12 82 -15 115 -2 33 -5 60 -6 60 -3 0 -8 40 -18 165 -10
122 -8 309 5 600 12 254 8 586 -7 628 -7 19 -2 34 27 78 29 44 34 59 29 85
l-7 31 -26 -24 c-15 -14 -40 -33 -56 -42 -16 -10 -50 -37 -75 -59 l-46 -41 35
38 c19 21 59 54 87 72 30 19 55 44 58 57 3 12 14 65 25 117 11 52 17 74 14 48
-3 -27 -3 -48 0 -48 3 0 19 46 36 103 28 90 71 224 88 267 3 8 4 20 2 25 -2 6
-6 26 -10 45 -7 30 -8 27 -9 -25 -1 -48 -9 -76 -37 -135 -20 -41 -40 -88 -44
-105 -7 -28 -8 -28 -9 -5 0 14 17 61 39 105 l40 80 0 220 c0 147 4 215 10 205
7 -10 8 0 5 35 -4 38 -3 45 5 30 8 -16 9 -10 6 25 -3 28 -2 37 3 25 6 -15 11
-8 26 40 10 33 23 66 28 73 5 7 11 36 12 66 4 86 33 122 95 117 48 -3 59 13
23 33 -17 9 -22 15 -12 16 54 1 171 -120 270 -280 112 -181 298 -595 381 -845
32 -100 97 -329 94 -332 -7 -7 -239 490 -287 616 -5 13 -12 21 -15 19 -8 -8
171 -419 252 -578 71 -141 74 -149 104 -310 48 -258 62 -357 62 -465 1 -81 2
-91 8 -50 l7 50 1 -57 c1 -32 -1 -58 -5 -58 -5 0 -9 -41 -11 -91 -2 -57 1 -88
7 -84 6 3 13 -10 17 -30 3 -19 9 -35 13 -35 3 0 22 37 41 81 19 45 36 77 37
72 4 -11 -94 -262 -107 -276 -3 -4 -5 18 -4 50 3 43 1 51 -5 33 -5 -14 -10
-65 -10 -115 -2 -112 -25 -464 -47 -685 -21 -223 -49 -482 -79 -724 -19 -159
-35 -291 -35 -293 0 -6 1482 -3 1551 4 l67 6 -8 28 c-5 16 -16 43 -24 61 -9
17 -16 37 -16 45 0 8 -9 35 -21 61 -42 97 -47 108 -64 159 -9 29 -20 55 -25
58 -4 3 -11 24 -15 48 -4 23 -11 47 -15 52 -11 16 -40 112 -40 135 0 11 -4 28
-9 38 -15 30 -39 94 -66 182 -15 47 -38 105 -52 130 -32 58 -54 121 -46 133 3
6 1 7 -5 3 -7 -4 -15 9 -23 36 -6 24 -20 62 -30 85 -11 24 -19 52 -19 62 0 11
-4 23 -10 26 -5 3 -10 13 -10 22 0 8 -10 29 -22 46 -12 17 -16 27 -7 22 9 -5
8 -1 -4 12 -9 11 -14 23 -10 27 4 4 0 12 -10 17 -9 6 -17 15 -17 21 0 6 7 5
17 -3 17 -13 17 -13 0 11 -30 44 -38 60 -29 60 7 0 -15 86 -36 140 -6 17 -9
28 -11 48 0 7 -6 10 -12 6 -7 -4 -9 0 -5 14 4 11 3 23 -2 26 -5 3 -8 17 -7 31
2 14 0 23 -5 20 -10 -6 -31 85 -23 99 3 5 -2 15 -13 23 -12 9 -15 16 -8 21 7
5 5 24 -6 61 -11 35 -20 49 -24 40 -3 -8 -4 -4 -2 8 2 13 0 23 -5 23 -5 0 -8
3 -7 8 0 4 -1 14 -4 22 -29 76 -98 347 -98 384 0 14 -4 27 -8 30 -5 3 -17 45
-27 93 -10 48 -24 100 -31 115 -8 15 -14 41 -14 58 0 16 -5 30 -11 30 -6 0 -9
7 -6 15 4 8 2 17 -3 20 -7 5 -12 25 -26 115 -8 47 -26 125 -39 165 -30 91 -45
156 -46 197 0 34 -2 39 -10 23 -9 -19 -5 346 6 540 4 67 3 73 -5 36 -11 -53
-19 -62 -27 -32 -3 13 -11 20 -19 17 -11 -4 -14 7 -15 47 -1 29 -10 -40 -19
-153 -10 -113 -18 -185 -19 -160 -1 63 36 532 54 670 8 63 15 120 15 128 0 7
4 11 9 7 6 -3 8 10 6 32 -3 27 -2 31 3 14 6 -20 11 -12 31 50 43 134 63 182
71 169 4 -7 13 -9 19 -6 7 5 11 -1 11 -15 0 -21 1 -21 26 -4 26 16 27 16 58
-13 28 -27 67 -52 80 -52 3 0 3 7 0 15 -4 8 -10 12 -15 9 -5 -3 -9 2 -9 10 0
8 5 18 10 21 6 4 7 11 4 17 -4 6 -10 5 -15 -3 -6 -10 -9 -10 -9 -2 0 7 7 16
16 21 13 7 4 21 -50 80 -44 48 -66 80 -65 95 2 20 2 20 6 -3 5 -26 427 -459
437 -449 3 3 -11 25 -32 49 -20 24 -32 41 -25 37 18 -11 21 13 6 54 -16 48
-20 74 -28 184 -4 50 -9 107 -10 128 -20 222 -16 432 11 570 8 38 18 26 20
-24 1 -22 6 -45 12 -52 13 -16 22 -107 11 -107 -5 0 -9 -4 -9 -10 0 -5 6 -7
12 -5 7 3 19 1 27 -4 18 -12 6 -45 -14 -37 -15 5 -22 -9 -7 -16 4 -1 18 -20
31 -41 13 -21 25 -36 28 -34 2 3 -6 21 -18 41 -22 38 -14 49 14 18 19 -20 23
-77 7 -87 -6 -4 -8 -11 -4 -16 3 -5 -4 -25 -16 -44 -16 -26 -19 -43 -14 -70 3
-19 11 -35 16 -35 6 0 7 8 3 17 -16 38 -15 59 4 83 11 14 22 23 24 20 3 -3 7
-53 10 -113 3 -59 9 -112 12 -117 9 -14 -9 -12 -23 2 -17 17 -15 7 9 -46 11
-25 17 -51 14 -56 -3 -5 -1 -19 5 -30 8 -14 7 -25 -2 -40 -9 -15 -10 -23 -2
-28 7 -4 10 -53 9 -137 -1 -71 1 -151 5 -177 4 -27 6 -48 5 -48 -1 0 -23 36
-49 81 -26 45 -50 78 -53 75 -3 -3 19 -49 50 -103 69 -124 111 -208 126 -255
14 -43 26 -48 36 -17 10 31 179 280 209 308 25 24 26 24 46 6 l20 -18 0 418
c-1 339 -3 414 -13 400 -12 -15 -14 -15 -26 -1 -13 15 -15 15 -26 0 -10 -14
-14 0 -24 77 -7 52 -17 106 -23 122 -11 30 5 62 26 50 6 -3 3 2 -6 12 -13 14
-14 23 -6 41 8 17 5 47 -10 121 -24 110 -36 190 -33 214 1 8 -7 23 -18 33 -11
10 -17 25 -14 37 3 10 0 26 -7 34 -10 12 -10 15 0 15 9 0 9 4 2 13 -12 14 -24
67 -28 122 -8 93 -21 178 -23 150 l-3 -30 -11 27 c-7 19 -24 33 -54 44 -24 10
-46 21 -49 25 -2 5 12 1 33 -8 21 -9 53 -19 72 -22 33 -6 33 -7 72 -131 21
-69 37 -133 35 -143 -3 -10 0 -14 7 -10 7 4 8 0 4 -11 -4 -10 -3 -15 3 -11 6
3 10 0 10 -8 0 -14 95 -236 105 -245 6 -6 -2 383 -9 428 -17 118 -18 190 -5
207 12 14 12 15 0 9 -9 -6 -12 -5 -9 5 3 8 9 13 14 12 5 -1 10 13 11 30 1 28
0 30 -10 13 -66 -103 -101 -126 -192 -126 -42 0 -70 9 -136 41 -70 35 -100 59
-184 144 -105 108 -163 150 -297 217 l-82 41 -101 -6 c-135 -8 -184 -24 -213
-67 -12 -19 -28 -43 -35 -54 -67 -101 -109 -133 -208 -155 -30 -7 -36 -6 -32
5 3 8 9 12 13 9 5 -3 6 5 2 17 -4 16 -2 19 8 13 9 -5 11 -4 6 4 -4 6 0 32 10
56 9 25 14 48 11 52 -4 3 -11 -5 -16 -18 -5 -13 -36 -90 -69 -171 l-59 -147
-12 39 c-6 22 -16 40 -21 40 -6 0 -10 8 -11 18 -2 28 -35 -119 -49 -218 -7
-50 -15 -88 -18 -86 -8 9 20 199 45 296 28 111 105 349 139 433 13 31 20 57
16 57 -14 0 -124 -314 -178 -505 -13 -47 -23 -69 -23 -52 -1 15 -5 28 -11 28
-5 1 -14 3 -20 4 -5 1 -15 3 -21 4 -5 0 -7 6 -4 11 3 6 1 10 -6 10 -8 0 -9
-12 -5 -37 16 -90 16 -99 7 -78 -29 67 -16 228 29 361 35 100 60 210 60 262 0
27 7 66 16 87 8 20 13 39 11 41 -10 11 -36 -79 -41 -143 -3 -39 -24 -131 -46
-205 -22 -73 -47 -167 -55 -208 -22 -118 -23 -118 -24 -87 0 16 -5 26 -10 22
-5 -3 -12 9 -14 27 -3 25 -4 22 -5 -15 -2 -48 21 -102 39 -91 5 3 9 -3 9 -13
-1 -14 -7 -11 -30 15 -27 29 -30 39 -30 100 0 37 12 135 26 217 48 286 63 390
62 440 l0 50 -8 -45 c-5 -25 -11 -75 -15 -111 -7 -69 -24 -95 -114 -170 -29
-25 -31 -30 -31 -98 0 -40 7 -103 16 -142 9 -38 13 -75 11 -82 -3 -6 -6 2 -7
18 l-2 30 -10 -27 c-5 -16 -13 -28 -18 -28 -5 0 1 -18 13 -40 20 -36 23 -38
29 -17 4 15 6 8 7 -23 l1 -45 -29 52 c-16 29 -43 72 -60 95 -25 34 -31 52 -32
97 0 31 -4 79 -9 106 l-7 50 -2 -43 c-1 -31 -4 -41 -13 -36 -10 6 -10 4 -1 -7
15 -15 17 -127 4 -148 -6 -10 -14 -5 -33 20 -32 43 -71 207 -94 396 l-17 142
38 56 c21 30 65 81 97 111 l59 57 30 -29 c16 -15 29 -22 29 -16 0 7 -5 12 -11
12 -6 0 -1 9 12 21 l24 20 -26 -16 c-22 -13 -28 -13 -38 -2 -9 12 -2 22 33 51
l44 36 0 -54 c-1 -48 3 -58 28 -80 21 -18 26 -28 18 -36 -7 -7 -16 -5 -29 10
-10 11 -23 20 -29 20 -6 0 6 -14 27 -31 66 -54 65 -59 -10 -131 -37 -34 -84
-79 -105 -99 l-38 -37 2 -78 1 -79 7 77 6 78 126 122 c70 68 131 133 137 144
8 16 23 23 63 28 29 4 106 20 170 36 112 27 122 28 214 18 72 -7 117 -7 170 2
40 6 150 11 246 11 95 0 230 5 299 11 l127 10 83 -43 c47 -24 111 -69 148
-104 58 -54 62 -55 33 -18 -43 55 -89 90 -185 143 -78 42 -80 43 -157 37 l-78
-5 -32 120 c-17 65 -30 124 -28 130 2 6 19 -45 38 -113 19 -67 41 -124 48
-127 8 -2 10 3 6 15 -5 15 -4 15 5 3 14 -20 14 -10 -3 37 -12 35 -62 269 -71
333 -7 53 -18 107 -32 160 -9 30 -29 116 -45 190 -31 145 -89 322 -113 347
-13 13 -15 12 -15 -6 0 -11 18 -105 39 -208 52 -252 53 -254 36 -205 -20 60
-70 310 -96 477 -17 113 -20 163 -15 260 3 66 9 133 13 149 4 20 3 27 -6 22
-6 -4 -11 -18 -11 -31 0 -13 -4 -27 -10 -30 -5 -3 -10 -36 -10 -73 0 -46 -3
-62 -10 -52 -9 15 -5 190 6 243 5 22 2 27 -14 27 -22 0 -62 -43 -62 -66 0 -8
-4 -14 -10 -14 -14 0 -2 53 29 134 26 65 30 69 77 88 199 79 246 51 334 -199
l37 -106 33 47 c63 93 125 249 157 396 25 118 25 391 0 509 -53 249 -178 472
-325 581 l-61 45 -2 250 c-2 229 -3 239 -10 120 -10 -187 -12 -188 -20 -10
-11 248 -52 615 -71 626 -6 4 -8 13 -5 21 6 16 -24 132 -43 168 -17 32 -30 11
-21 -32 8 -34 7 -36 -10 -25 -11 7 -24 27 -30 45 l-11 34 -20 -21 c-22 -24
-38 -20 -38 10 0 11 5 17 10 14 6 -3 10 4 10 15 0 16 5 20 15 16 8 -3 16 -1
16 4 2 14 6 30 9 33 10 11 4 128 -8 152 -8 17 -10 26 -4 20 9 -9 27 -43 80
-155 l12 -25 -6 25 c-11 49 -85 186 -130 243 l-46 57 -261 0 c-258 -1 -262 -1
-290 -24z m338 -441 c72 -19 156 -63 214 -113 43 -38 44 -39 62 -148 28 -164
29 -161 -33 -114 -214 162 -488 204 -681 105 -42 -21 -48 -22 -43 -7 3 9 15
59 26 109 24 104 35 117 126 147 116 38 234 45 329 21z m466 -595 c28 -350
-25 -894 -137 -1419 -38 -181 -210 -871 -219 -879 -3 -3 -5 -1 -5 5 0 22 51
258 89 414 22 90 52 227 66 304 14 77 32 167 40 200 22 94 69 425 68 475 0 25
-4 74 -8 110 -5 46 1 134 19 297 14 127 26 255 26 283 0 41 5 57 22 71 21 19
21 24 16 202 -6 199 4 173 23 -63z m-542 -430 c7 -17 10 -20 10 -8 1 14 12 10
60 -23 32 -22 68 -50 79 -62 l21 -22 -44 0 c-41 0 -43 1 -22 12 12 7 17 12 10
13 -6 0 -18 3 -27 6 -12 5 -15 -1 -14 -30 1 -25 4 -34 12 -26 5 5 26 10 46 10
19 0 42 5 50 10 11 7 17 5 21 -8 3 -9 9 13 13 51 9 80 25 79 27 -1 1 -31 3
-46 6 -32 10 67 14 74 27 59 17 -18 69 -299 67 -359 -3 -70 -45 -264 -110
-505 -33 -121 -53 -211 -45 -200 8 11 18 31 21 45 24 100 82 291 82 275 1 -11
-8 -72 -20 -135 -20 -108 -25 -120 -78 -200 -55 -84 -209 -250 -264 -285 -27
-17 -28 -17 -54 6 -44 41 -133 167 -178 252 -64 121 -100 236 -121 381 -12 81
-21 120 -25 105 -7 -30 -23 95 -16 132 2 13 5 0 6 -28 0 -29 4 -53 9 -53 10 0
5 73 -19 237 -19 136 -20 144 -3 172 10 17 21 28 26 25 4 -3 5 1 2 9 -3 8 10
47 29 88 18 41 46 109 61 151 26 71 31 78 67 92 45 18 52 19 45 7 -4 -5 3 -7
14 -4 16 4 20 0 21 -18 0 -23 1 -23 10 -4 7 15 8 9 4 -20 -4 -25 -2 -35 3 -27
11 17 25 -69 15 -94 -4 -12 -3 -15 5 -10 8 5 12 -1 12 -16 0 -13 5 -30 11 -38
7 -11 9 -1 5 35 -3 28 -8 93 -11 146 -6 93 -6 97 16 113 l23 16 17 -83 c9 -45
23 -104 32 -132 15 -48 15 -45 11 115 l-4 165 25 -140 c13 -78 28 -152 34
-165z m688 -282 c106 -102 197 -270 238 -436 20 -85 31 -90 16 -8 -11 61 2
127 19 96 25 -47 44 -193 44 -345 1 -180 -21 -306 -75 -444 -35 -87 -108 -221
-122 -221 -5 0 -7 3 -5 8 2 4 24 50 50 102 47 93 104 268 96 292 -3 7 -15 -30
-28 -82 -14 -56 -44 -136 -73 -195 l-50 -100 -27 80 c-32 94 -50 132 -84 172
-20 24 -27 48 -36 130 -7 56 -10 108 -7 115 3 7 6 -3 6 -22 2 -70 39 21 71
175 43 208 34 491 -20 602 -11 23 -19 47 -18 52 2 6 -17 28 -42 50 -25 22 -39
40 -32 41 8 0 43 -28 79 -62z m-1442 -89 c-59 -213 -194 -607 -275 -809 -105
-258 -185 -439 -199 -453 -19 -19 64 214 294 818 71 185 195 532 195 543 0 3
2 3 5 0 3 -3 -6 -47 -20 -99z m120 44 c-13 -100 -57 -331 -76 -402 -11 -40
-17 -83 -14 -95 5 -17 4 -18 -5 -6 -9 12 -10 8 -6 -20 5 -26 3 -31 -5 -20 -8
12 -10 8 -7 -17 3 -19 0 -30 -5 -26 -6 4 -8 -5 -5 -20 3 -15 2 -24 -2 -22 -4
3 -11 -12 -15 -33 -17 -99 -201 -690 -211 -680 -2 2 6 37 16 78 24 94 24 121
0 55 -31 -84 -69 -171 -70 -158 0 7 22 73 49 145 121 328 266 846 305 1093 21
128 66 242 51 128z m-65 -148 c-5 -22 -23 -105 -41 -185 -34 -160 -116 -449
-186 -665 -71 -218 -250 -681 -260 -672 -4 4 3 23 31 89 l16 37 -39 37 c-22
20 -42 48 -46 61 -5 22 -7 23 -22 8 -14 -15 -13 -25 12 -123 15 -59 31 -111
34 -117 6 -11 2 -55 -6 -69 -3 -4 -22 57 -42 135 -36 141 -37 145 -20 179 10
19 32 69 49 110 18 41 71 158 117 260 124 269 217 483 288 665 88 222 118 295
121 292 2 -1 -1 -21 -6 -42z m1315 -540 c9 -99 19 -207 24 -240 8 -59 7 -74
-5 -62 -29 29 -73 595 -57 736 7 60 8 50 15 -94 4 -88 15 -241 23 -340z m-577
-704 c-1 -5 -40 -36 -86 -71 -45 -34 -121 -100 -168 -146 -60 -58 -93 -84
-110 -84 -13 0 -24 -3 -24 -7 0 -5 -28 -9 -62 -11 -35 -1 -78 -7 -96 -12 -30
-8 -33 -7 -27 8 14 36 44 159 51 205 8 57 29 75 100 83 47 6 51 4 91 -35 49
-48 47 -53 -5 -12 -39 30 -70 33 -137 12 -26 -8 -22 -9 30 -10 l60 -1 60 -65
60 -65 65 59 c36 33 59 60 52 61 -8 0 -5 8 9 23 11 12 28 32 36 45 9 12 25 22
37 21 20 0 20 0 1 -9 -23 -9 -71 -58 -64 -65 3 -2 29 12 58 31 40 27 50 38 40
45 -10 6 -8 9 9 9 13 0 22 -4 20 -9z m322 -35 c29 -13 55 -77 62 -153 4 -45 3
-53 -12 -53 -9 0 -22 10 -28 23 -7 15 -11 17 -11 6 -1 -8 7 -24 17 -35 10 -11
22 -33 27 -49 7 -27 8 -28 15 -10 7 16 9 14 9 -12 1 -39 -1 -27 21 -113 10
-39 17 -83 15 -98 -2 -15 -6 -83 -9 -152 -10 -193 -14 -220 -39 -217 -12 1
-30 11 -42 22 -11 12 -17 16 -12 11 12 -17 8 -26 -10 -19 -16 6 -16 4 -5 -9 8
-10 24 -15 42 -13 17 2 36 -2 44 -11 19 -18 24 -18 29 4 2 9 3 -4 3 -30 -1
-35 -5 -48 -16 -48 -13 -1 -13 -2 0 -13 8 -7 17 -28 19 -47 l3 -35 -32 34
c-25 26 -29 35 -19 42 7 4 10 11 6 16 -4 4 -17 2 -27 -5 -16 -10 -20 -10 -20
0 0 24 -20 -16 -20 -42 -1 -22 -2 -23 -11 -7 -7 13 -6 32 4 67 16 55 10 70
-16 39 -19 -22 -50 -25 -65 -6 -14 17 10 54 42 67 16 7 17 9 4 9 -10 1 -26 -9
-37 -20 l-20 -22 -7 29 c-4 16 -11 34 -15 40 -5 6 -7 28 -5 48 6 47 -10 47
-19 0 -3 -20 -13 -44 -22 -52 -14 -15 -15 -5 -12 103 4 117 3 120 -18 123 -14
2 -23 -3 -27 -15 -12 -41 7 140 29 271 29 175 54 286 64 286 10 0 20 -161 20
-314 0 -60 3 -111 6 -114 5 -5 9 164 9 356 0 45 3 82 7 82 13 0 47 -54 50 -79
2 -14 11 -27 19 -29 12 -4 13 -2 4 9 -12 15 -23 52 -31 104 -2 17 -12 36 -21
44 -15 12 -14 12 8 6 14 -4 36 -12 50 -19z m-315 -61 c-9 -36 -21 -62 -26 -59
-5 3 -9 -13 -9 -35 0 -22 -9 -86 -19 -143 -11 -57 -30 -170 -42 -253 -12 -82
-28 -163 -37 -180 -8 -16 -19 -38 -23 -47 -5 -10 -9 -29 -9 -43 0 -15 -4 -24
-10 -20 -5 3 -10 19 -10 36 0 16 -4 29 -10 29 -5 0 -10 8 -10 17 0 13 -3 14
-12 5 -20 -20 -45 -13 -73 21 l-27 32 20 -36 c11 -20 17 -42 13 -48 -5 -7 -12
-2 -20 15 -15 34 -25 25 -11 -10 5 -15 10 -38 10 -52 0 -28 -36 -68 -55 -60
-15 5 -25 -14 -25 -50 0 -17 -7 -25 -24 -30 -31 -7 -51 3 -37 19 7 9 0 13 -25
15 -22 1 -33 -2 -29 -8 3 -5 12 -10 20 -10 13 0 29 -29 20 -38 -3 -3 -13 2
-23 11 -10 10 -24 17 -31 17 -6 0 -23 11 -37 26 -14 14 -31 23 -36 22 -6 -2
16 -22 48 -43 68 -46 86 -62 103 -90 l12 -20 -4 20 c-3 11 -8 27 -11 35 -5 11
3 19 24 27 l30 11 0 -39 c0 -21 -5 -39 -11 -39 -5 0 -7 -5 -4 -10 4 -6 3 -24
0 -41 -6 -28 -9 -30 -23 -16 -13 13 -13 19 -2 31 7 9 9 16 6 16 -11 0 -36 -27
-36 -39 0 -5 -4 -12 -9 -15 -5 -4 -17 16 -26 44 -26 79 -34 58 -13 -37 10 -49
21 -99 24 -113 4 -18 -1 -31 -15 -44 -31 -28 -48 -7 -21 24 25 29 26 39 2 17
-10 -10 -21 -17 -24 -17 -5 0 -30 54 -34 70 -5 25 -22 51 -28 42 -3 -6 -2 -13
4 -17 5 -3 10 -11 10 -16 0 -6 -4 -8 -9 -5 -5 3 -12 -6 -16 -21 -6 -26 -7 -25
-31 23 -13 27 -21 38 -17 24 3 -14 7 -34 7 -45 1 -11 6 -23 11 -27 6 -5 5 -8
-2 -8 -7 0 -17 9 -23 20 -16 30 -31 25 -20 -7 l10 -28 -19 23 c-11 12 -25 22
-33 22 -7 0 0 -11 16 -25 16 -14 33 -25 38 -25 4 0 8 -5 8 -11 0 -6 -7 -8 -16
-5 -12 5 -15 2 -10 -10 3 -8 6 -20 6 -25 0 -14 18 -11 23 4 2 6 2 0 0 -15 -2
-14 1 -29 6 -33 7 -4 9 1 5 12 -5 15 -4 16 5 3 6 -8 11 -24 11 -35 0 -17 -2
-17 -14 -5 -24 25 -88 148 -91 175 -1 14 -10 31 -19 38 -16 11 -15 20 2 130
10 65 15 114 11 110 -4 -4 -15 -52 -24 -107 -8 -54 -17 -102 -20 -106 -5 -8
87 -201 115 -240 l19 -27 -24 -23 -24 -23 -46 22 c-44 21 -45 22 -46 69 -1 41
-2 43 -8 17 -4 -16 -5 -68 -3 -115 4 -72 2 -88 -13 -100 -18 -15 -57 -22 -49
-8 3 4 -2 8 -10 8 -18 0 -20 -8 -8 -28 5 -7 16 -10 26 -6 15 6 14 1 -5 -29
-23 -35 -24 -35 -33 -14 -8 22 -9 237 -1 245 3 3 9 -6 14 -19 9 -22 11 -20 15
14 0 6 7 13 14 13 6 1 14 2 17 3 2 0 -7 23 -20 50 -26 50 -32 91 -15 91 5 0
16 -12 24 -27 l15 -28 1 40 c0 22 8 72 18 110 13 50 16 80 10 103 -6 24 -5 42
6 63 9 17 13 45 10 67 -3 25 -2 31 4 18 7 -17 10 -16 21 12 7 16 12 41 11 54
-4 42 0 58 12 55 8 -1 15 16 18 45 3 26 9 51 14 55 7 7 2 -55 -10 -117 -3 -17
-2 -21 4 -11 6 8 12 -19 17 -80 12 -153 23 -194 16 -59 -10 211 -8 257 22 350
15 47 32 94 37 105 5 11 11 31 13 45 2 14 9 36 14 50 6 14 16 37 21 51 9 23
19 28 65 33 40 5 65 3 95 -10 47 -18 47 -19 28 -56 -8 -16 -11 -28 -6 -28 4 0
2 -20 -6 -45 -16 -54 -1 -51 17 3 6 20 23 53 37 72 27 36 160 188 219 249 59
63 25 45 -44 -23 -37 -36 -71 -66 -74 -66 -4 0 28 34 71 75 42 42 81 75 87 73
5 -2 23 13 42 32 l32 35 -5 -55 c-5 -55 4 -40 19 34 3 15 9 26 12 22 3 -3 -2
-35 -12 -71z m-705 -65 c0 -6 -14 -63 -31 -127 -24 -92 -37 -124 -62 -152 -18
-20 -39 -47 -49 -61 -16 -25 -16 -25 -33 -5 -16 19 -16 19 -9 -10 10 -42 9
-51 -15 -135 -32 -114 -81 -316 -96 -401 -16 -87 -19 -639 -5 -704 6 -29 8 -8
5 75 -2 63 -1 99 3 80 4 -19 7 65 7 188 0 123 -3 213 -7 200 -4 -16 -6 -8 -7
26 -2 89 98 513 148 628 22 49 80 132 88 125 3 -3 1 -12 -3 -19 -5 -7 -18 -40
-30 -73 -12 -33 -45 -121 -74 -195 -47 -123 -109 -344 -90 -324 4 5 15 40 24
78 22 88 76 259 81 254 3 -2 -5 -34 -16 -71 -56 -188 -89 -362 -94 -492 l-4
-130 9 104 c9 104 20 148 20 75 0 -21 -5 -118 -10 -216 -5 -104 -6 -208 0
-255 9 -86 7 -102 -9 -52 -10 32 -11 31 -6 -14 3 -27 18 -85 33 -130 16 -45
32 -91 35 -102 4 -11 -4 3 -18 30 l-25 50 -2 -45 c-1 -25 -2 -69 -3 -98 -2
-29 1 -55 6 -58 5 -2 22 2 38 10 22 12 30 13 34 3 2 -6 2 15 -1 48 -6 83 7 64
17 -24 7 -65 6 -69 -9 -56 -25 22 -46 18 -98 -17 -25 -17 -62 -37 -82 -44 -34
-12 -36 -15 -68 -125 -19 -63 -45 -140 -59 -172 -14 -32 -23 -60 -21 -62 9
-10 68 131 94 224 27 99 30 104 63 118 20 9 54 28 78 44 23 16 48 29 56 29 32
0 206 -227 192 -250 -4 -6 -1 -9 5 -8 14 4 66 -85 75 -127 5 -25 3 -24 -12 10
-26 58 -53 105 -59 105 -3 0 -4 -6 -1 -12 2 -7 -2 -25 -9 -39 -12 -24 -11 -28
17 -55 37 -35 58 -74 51 -93 -2 -8 0 -11 5 -8 5 3 10 -6 11 -21 l2 -27 -33 36
c-17 20 -57 65 -88 100 l-56 65 -103 -3 c-85 -2 -107 0 -122 14 -10 9 -18 12
-18 7 0 -6 43 -47 95 -93 52 -46 114 -106 137 -134 30 -38 34 -44 12 -24 -29
26 -31 27 -46 10 -9 -10 -26 -51 -38 -92 l-21 -73 20 -22 c12 -13 19 -25 16
-28 -3 -3 13 -18 35 -33 36 -25 51 -45 33 -45 -12 0 -93 51 -93 59 0 4 -45 31
-99 60 -80 41 -101 57 -110 81 -13 38 -24 39 -15 3 10 -40 14 -44 111 -92 57
-29 100 -59 123 -85 19 -23 25 -33 13 -23 -12 11 -26 16 -31 13 -13 -8 -30
-84 -38 -171 -4 -38 -12 -74 -18 -78 -6 -4 19 -7 56 -5 37 2 64 0 60 -5 -7 -6
-34 -10 -109 -16 -7 -1 -13 -5 -13 -10 0 -5 24 -8 53 -7 28 2 37 2 19 -1 -18
-2 -30 -8 -27 -13 3 -5 -5 -16 -17 -24 -18 -13 -22 -26 -23 -78 -1 -87 2 -94
34 -66 l26 23 -25 -28 c-41 -47 -55 -50 -113 -28 -152 57 -146 51 -199 201
-30 83 -31 87 -19 166 6 44 11 119 11 166 0 48 5 99 10 114 6 15 7 30 3 33 -5
3 -3 35 4 71 l12 65 -4 -65 c-3 -51 -2 -60 6 -40 6 14 12 90 14 170 2 80 10
177 18 215 36 165 126 887 142 1135 14 211 46 540 60 617 35 187 93 318 185
414 50 54 90 75 90 49z m495 -742 c-3 -46 -9 -99 -15 -118 -5 -19 -11 -53 -11
-75 -2 -31 -3 -34 -6 -12 -4 24 -7 26 -20 16 -13 -11 -18 -10 -29 6 -11 14
-13 38 -8 100 9 114 25 143 92 164 1 1 0 -36 -3 -81z m406 42 c9 12 10 12 5
-4 -4 -11 0 -26 10 -37 9 -10 13 -22 10 -28 -7 -11 31 -51 49 -51 6 0 17 6 24
13 10 10 10 6 0 -18 -7 -16 -22 -39 -33 -50 l-20 -20 16 20 c15 20 14 45 -3
45 -5 0 -20 -21 -34 -47 -18 -34 -24 -40 -20 -21 3 15 1 30 -5 33 -5 3 -10 -1
-10 -10 0 -9 -10 -37 -22 -63 -23 -50 -34 -41 -26 24 2 19 0 34 -4 34 -5 0 -7
29 -4 64 4 68 33 136 48 113 6 -9 11 -8 19 3z m18 -1536 c12 -15 21 -36 21
-48 0 -17 2 -18 10 -6 5 8 10 11 10 5 0 -12 31 -50 100 -122 28 -28 50 -58 50
-66 0 -8 -13 -17 -30 -20 -16 -4 -30 -11 -30 -17 0 -8 6 -8 20 0 28 15 64 -21
56 -58 -5 -25 -5 -25 5 -5 9 16 8 28 -3 50 -18 36 -13 59 8 38 8 -8 16 -18 17
-22 1 -4 13 -18 28 -30 26 -22 45 -63 29 -63 -5 0 -11 -13 -15 -30 -4 -16 -11
-32 -16 -35 -5 -4 -9 -13 -9 -22 0 -11 5 -9 21 8 11 13 17 18 13 10 -4 -9 2
-20 17 -32 21 -16 22 -21 11 -39 -12 -19 -11 -20 8 -8 11 7 20 16 20 20 0 5 9
8 19 8 11 0 23 5 26 10 8 13 3 13 -30 0 -26 -10 -26 -10 -24 35 2 25 6 45 11
45 4 0 23 -25 43 -55 l35 -56 6 -285 c4 -229 3 -284 -8 -282 -7 2 -14 -11 -18
-32 -5 -32 -8 -27 -32 60 -22 75 -88 353 -88 368 0 2 -4 1 -9 -2 -5 -3 -1 -42
9 -88 11 -45 17 -84 16 -85 -2 -2 -11 18 -21 44 -10 27 -29 68 -43 91 -14 24
-27 60 -29 80 -2 20 -7 39 -10 42 -3 3 -3 -7 -1 -22 6 -33 -8 -38 -18 -6 -20
64 -36 91 -45 77 -12 -19 -11 -8 2 30 12 33 36 41 45 16 4 -8 1 -22 -6 -30 -9
-11 -9 -18 2 -33 12 -17 13 -14 15 29 1 44 -1 50 -23 55 -13 3 -24 10 -24 14
0 4 -7 11 -16 14 -12 4 -14 1 -9 -14 12 -38 -2 -20 -35 44 -18 36 -41 74 -52
85 -15 17 -16 21 -3 21 8 0 15 -6 15 -14 0 -8 9 -21 20 -29 11 -8 17 -17 13
-20 -3 -4 -1 -7 6 -7 7 0 9 -4 6 -10 -3 -5 -1 -10 4 -10 6 0 11 -8 12 -17 0
-10 3 -13 5 -7 3 7 13 10 22 7 10 -2 26 5 37 18 l20 22 -25 -16 c-16 -10 -30
-13 -39 -8 -20 13 -22 72 -3 94 8 9 12 17 7 17 -4 0 -14 -8 -21 -17 -20 -27
-17 2 3 35 l17 27 -22 -19 c-12 -11 -23 -16 -23 -13 -3 15 -7 25 -34 80 -20
43 -26 68 -22 93 3 19 2 34 -4 34 -5 0 -9 -6 -9 -12 -1 -33 -27 39 -29 80 -1
7 -5 10 -11 7 -5 -3 -10 1 -10 9 0 24 16 19 39 -10z m571 -52 c0 -5 18 -16 39
-25 50 -23 90 -97 71 -132 -12 -23 -5 -85 9 -85 4 0 15 -25 25 -55 9 -30 22
-55 28 -55 7 0 7 4 1 13 -10 12 -28 85 -25 100 1 4 -2 7 -6 7 -4 0 -8 8 -8 18
-1 9 -4 26 -8 37 -6 16 -6 17 3 5 6 -8 47 -125 92 -260 44 -134 84 -247 88
-250 8 -5 23 -63 27 -104 1 -10 6 -21 11 -25 6 -3 16 -37 23 -76 7 -38 14 -79
16 -90 2 -11 6 -83 9 -160 2 -77 6 -162 8 -190 2 -27 2 -38 0 -23 -3 20 -8 25
-20 21 -13 -5 -15 0 -9 33 4 26 4 34 -3 25 -7 -10 -11 -1 -16 35 -3 27 -8 59
-11 72 -2 12 0 22 6 22 6 0 5 11 -4 28 -13 26 -13 31 2 46 16 16 16 17 -3 10
-17 -7 -18 -5 -8 8 7 8 10 18 6 21 -3 4 -1 7 5 7 7 0 12 5 12 10 0 6 -7 10
-15 10 -13 0 -14 4 -5 20 6 11 7 20 3 20 -5 0 -14 21 -21 48 -26 101 -143 435
-154 440 -5 2 -8 29 -8 60 0 36 -5 61 -16 73 -8 9 -41 74 -74 145 l-58 127 22
19 21 19 -22 -10 c-30 -15 -30 -15 -42 19 -6 18 -6 30 0 30 5 0 9 -4 9 -8z
m-922 -127 c3 -68 37 -157 49 -127 7 18 26 15 19 -4 -3 -8 -2 -13 3 -9 5 3 24
-13 42 -36 22 -28 37 -39 50 -36 11 3 19 1 19 -3 0 -5 8 -8 18 -7 13 1 18 8
17 28 -1 18 3 26 14 25 9 -1 15 6 15 17 -1 9 1 17 5 17 20 -2 151 -207 151
-237 0 -6 4 -13 8 -15 16 -6 52 -67 52 -86 0 -22 -11 -27 -80 -37 -108 -15
-250 -76 -425 -182 -154 -94 -275 -191 -425 -342 -80 -80 -148 -145 -152 -144
-3 1 -12 -5 -20 -15 -12 -15 -11 -16 5 -3 9 7 17 9 17 4 0 -15 -36 -44 -44
-36 -4 4 -4 0 -1 -8 3 -9 -4 -23 -17 -35 -18 -15 -20 -15 -9 -2 9 13 13 51 13
130 1 76 3 97 7 64 5 -43 9 -50 30 -51 21 -2 22 0 7 10 -9 7 -18 30 -21 51 -2
22 -7 51 -11 66 -8 36 5 140 17 133 5 -4 9 2 9 13 0 10 3 22 7 26 9 9 10 11
13 69 2 25 4 33 7 19 2 -12 9 -20 14 -16 5 3 7 10 4 15 -4 5 -3 9 2 9 4 0 9
15 10 33 1 17 5 43 8 55 3 13 2 21 -3 18 -11 -6 40 153 58 180 8 14 10 14 7 3
-4 -12 -1 -15 11 -12 10 2 17 14 17 29 0 15 -5 22 -12 20 -7 -3 -10 1 -6 10 7
20 20 18 33 -6 18 -33 39 -24 46 20 4 22 9 40 13 40 3 0 31 -12 62 -26 51 -25
57 -32 75 -82 11 -29 24 -53 29 -53 14 1 17 76 6 146 l-10 60 3 -72 c4 -77 -9
-99 -19 -35 -9 52 -9 53 0 97 4 22 21 57 36 78 15 21 33 55 40 75 7 20 22 46
34 58 12 11 31 33 41 49 14 21 96 85 109 85 1 0 2 -16 3 -35z m-464 -113 c21
-1 45 3 52 8 21 19 64 0 81 -35 15 -31 14 -34 -8 -64 l-23 -31 -98 0 c-95 0
-98 1 -98 23 -1 22 -1 22 -15 -3 -8 -14 -15 -20 -15 -15 -1 6 -3 19 -5 30 -10
51 -12 96 -4 101 16 10 49 -30 49 -61 0 -40 14 -60 35 -51 10 3 23 2 30 -4 9
-8 14 -5 18 10 4 17 3 19 -9 9 -10 -8 -14 -8 -14 0 0 6 2 11 4 11 2 0 12 3 22
7 14 5 16 2 12 -15 -4 -12 -2 -22 3 -22 5 0 9 7 9 15 0 9 11 20 25 25 14 5 25
12 25 15 0 4 -5 3 -12 -1 -8 -5 -9 -2 -5 9 3 9 2 19 -3 22 -5 3 -11 -4 -15
-15 -7 -23 -21 -26 -28 -7 -4 9 -8 8 -16 -3 -9 -13 -14 -13 -31 -2 -20 12 -20
11 -11 -7 8 -14 8 -22 0 -26 -15 -10 -19 -2 -21 38 -1 24 -7 38 -18 42 -11 3
-16 16 -16 39 l0 33 31 -37 c24 -30 37 -37 69 -38z m-675 -474 c-2 -41 59
-225 84 -256 5 -7 32 -22 59 -34 26 -11 48 -22 48 -23 0 -18 -104 -313 -124
-352 -24 -49 -47 -75 -31 -35 11 25 6 81 -9 116 -8 17 -17 40 -21 51 -18 45
-15 -15 4 -109 18 -91 19 -99 3 -126 -9 -17 -20 -30 -23 -30 -11 0 -48 132
-65 230 -20 119 -21 295 -2 375 17 66 70 235 75 235 2 0 3 -19 2 -42z m-162
-240 c-3 -35 -40 -364 -82 -733 -41 -368 -91 -812 -110 -985 -38 -345 -44
-385 -52 -377 -2 3 2 65 11 139 9 73 52 464 96 868 44 404 89 814 100 910 11
96 21 190 22 208 1 17 6 32 12 32 5 0 6 -26 3 -62z m269 -407 c-9 -16 -16 -37
-16 -46 0 -8 -5 -15 -11 -15 -5 0 -7 -4 -4 -10 3 -5 2 -10 -2 -10 -5 0 -10 -8
-11 -17 -16 -124 -19 -144 -21 -118 l-2 30 -14 -25 c-12 -22 -31 -143 -28
-177 1 -12 -18 -18 -40 -14 -5 1 -5 -3 -2 -9 4 -6 0 -19 -9 -29 -8 -9 -20 -35
-25 -57 -9 -38 -9 -37 -10 25 -1 55 1 62 14 51 9 -7 15 -8 15 -2 0 14 -24 22
-39 13 -16 -10 -16 -10 74 -893 25 -245 25 -248 7 -285 l-19 -36 -7 45 c-4 26
-13 52 -21 58 -24 20 -52 128 -90 340 -31 178 -35 219 -35 372 0 95 4 201 9
235 12 80 76 230 145 335 29 46 75 127 102 180 26 54 50 96 52 94 2 -2 -4 -18
-12 -35z m2205 -15 c5 3 9 -11 9 -31 0 -22 4 -34 10 -30 6 3 10 1 10 -4 0 -6
-6 -11 -12 -11 -7 -1 -3 -9 10 -19 15 -13 18 -21 10 -24 -10 -4 -10 -8 1 -15
7 -5 11 -14 8 -19 -7 -11 11 -85 23 -93 8 -6 41 -132 44 -167 0 -13 4 -23 7
-23 3 0 12 -19 19 -42 7 -24 17 -46 22 -49 6 -4 -7 -30 -31 -63 -23 -31 -64
-91 -91 -133 l-49 -76 -4 399 c-2 219 -7 410 -10 424 -6 20 -5 20 4 -3 6 -15
15 -25 20 -21z m-720 -3041 c16 -77 47 -205 69 -285 21 -80 66 -251 99 -380
33 -129 72 -273 85 -320 14 -46 23 -86 21 -89 -5 -5 -6 -3 -44 119 -132 423
-313 1166 -288 1182 8 5 15 -8 20 -40 4 -26 21 -110 38 -187z m-444 -1035 c3
-8 5 -26 4 -40 -2 -21 0 -22 9 -10 9 12 10 8 6 -18 -4 -20 -2 -31 4 -27 6 3
10 13 10 21 0 17 20 19 21 2 4 -95 3 -138 -3 -138 -5 0 -8 -6 -8 -14 0 -8 -9
-24 -19 -37 l-19 -24 -22 38 c-12 20 -23 37 -24 37 -5 0 -3 -76 2 -85 15 -24
8 -37 -30 -56 -22 -11 -42 -18 -45 -15 -5 5 15 238 23 269 8 28 24 9 24 -28 0
-18 3 -40 6 -49 13 -34 19 -13 16 56 -2 40 2 99 9 132 12 57 13 59 22 31 5
-17 11 -37 14 -45z"/>
<path d="M1284 10404 c4 -14 -1 -27 -19 -44 -13 -12 -22 -27 -19 -31 3 -5 -2
-22 -11 -39 -14 -27 -14 -36 1 -93 21 -85 31 -89 26 -12 -6 84 2 111 41 146
31 29 51 34 80 23 22 -8 -51 -77 -76 -70 -17 4 -18 0 -12 -47 4 -29 13 -56 21
-60 11 -6 11 -12 1 -28 -8 -13 -9 -22 -2 -27 6 -4 10 -17 9 -29 -1 -26 11 -28
68 -11 42 12 64 45 53 78 -3 10 -1 21 5 25 5 3 10 33 10 65 0 49 3 58 15 54
12 -5 14 -2 7 17 -5 13 -7 29 -5 35 12 34 -112 78 -154 56 -15 -8 -23 -8 -33
1 -10 10 -11 8 -6 -9z"/>
<path d="M1763 10318 c-11 -13 -24 -34 -28 -46 -6 -22 -5 -23 14 -13 12 7 21
9 21 5 0 -3 7 -1 15 6 9 7 26 9 47 5 l33 -8 -23 -15 c-12 -8 -22 -21 -22 -28
0 -17 -32 -18 -48 -2 -9 9 -12 3 -12 -30 0 -29 5 -45 15 -49 14 -5 14 -8 -1
-24 -16 -18 -16 -19 -1 -19 10 0 17 -4 17 -10 0 -5 -7 -10 -15 -10 -25 0 -5
-28 43 -60 25 -16 51 -30 58 -30 14 0 25 48 13 56 -15 9 -10 34 5 28 14 -5 25
31 27 85 l1 26 13 -30 c15 -31 19 -104 9 -142 -3 -11 -16 -24 -27 -28 -14 -4
-17 -8 -9 -12 52 -21 94 135 56 208 -8 17 -13 37 -10 45 3 8 1 14 -5 14 -5 0
-24 16 -41 36 -57 64 -110 80 -145 42z"/>
<path d="M2474 8793 c4 -21 15 -87 25 -148 11 -60 39 -220 65 -355 101 -542
145 -713 269 -1040 53 -141 105 -316 146 -490 16 -70 20 -78 20 -45 1 23 -17
108 -39 189 -22 82 -38 159 -35 170 5 17 4 18 -4 6 -10 -13 -11 -13 -11 0 -1
12 -62 185 -95 265 -5 11 -5 17 0 13 4 -4 27 -56 51 -115 l43 -108 1 80 c0 44
1 91 2 105 0 14 -2 41 -6 60 -4 19 -7 42 -7 50 3 63 12 103 28 127 34 49 38
59 13 38 l-24 -20 15 22 c9 12 27 32 42 43 26 21 27 25 27 120 0 90 -2 99 -20
105 -11 3 -20 11 -20 16 0 6 -4 8 -8 5 -5 -3 -15 4 -22 15 -8 10 -19 19 -26
19 -6 0 -19 15 -29 34 -11 19 -23 32 -29 29 -5 -4 -7 1 -3 10 3 10 2 17 -3 17
-6 0 -10 6 -10 13 0 7 -12 28 -27 46 -26 30 -33 33 -104 38 l-77 6 24 -119
c13 -65 23 -123 21 -128 -2 -6 -13 41 -26 104 -12 63 -24 123 -27 133 -5 16 6
17 190 11 146 -5 196 -4 196 4 0 8 -24 12 -67 13 -38 1 -126 4 -198 8 l-129 6
-8 30 c-4 17 -23 118 -42 225 -66 365 -78 430 -83 430 -3 0 -3 -17 1 -37z"/>
</g>
</svg>
